<?xml version="1.0" encoding="utf-8"?>
<!-- Generator: Adobe Illustrator 25.0.1, SVG Export Plug-In . SVG Version: 6.00 Build 0)  -->
<svg version="1.0" id="katman_1" xmlns="http://www.w3.org/2000/svg" xmlns:xlink="http://www.w3.org/1999/xlink" x="0px" y="0px"
	 viewBox="0 0 560 400" style="enable-background:new 0 0 560 400;" xml:space="preserve">
<style type="text/css">
	.st0{fill:#DC241F;}
	.st1{fill:#0019A8;}
	.st2{fill:#FFFFFF;}
</style>
<g transform="matrix(1.00528 0 0 1.00528 79.9491 49.2078)">
	<path class="st0" d="M199,289.3c-76.8,0-139.3-62.5-139.3-139.3S122.2,10.7,199,10.7S338.3,73.2,338.3,150S275.8,289.3,199,289.3
		L199,289.3z M199,59c-50.2,0-91,40.8-91,91s40.8,91,91,91s91-40.8,91-91S249.2,59,199,59z"/>
	<path class="st1" d="M371.4,176.5H26.6v-53.1h344.7V176.5z"/>
	<g>
		<path class="st2" d="M110.8,135.8v28.3l10.2,0c7.4,0,13.4-6.3,13.4-14.2c0-7.8-5.8-14-13.3-14H110.8z M121,141
			c4.7,0,8.4,4,8.4,8.9c0,4.9-3.9,8.9-8.6,8.9l-4.9,0V141L121,141z"/>
		<path class="st2" d="M51.1,152v-16.2h5.1l0,16.8c0.1,4.2,3.2,7.5,7,7.6c3.9,0,7.1-3.5,7.1-7.6v-16.8h5.1l0,16.3
			c0,7.4-5.4,13-12.2,13S51.1,159.1,51.1,152z M264.6,152v-16.2h5.1l0,16.8c0.1,4.2,3.2,7.5,7,7.6c3.9,0,7.1-3.5,7.1-7.6v-16.8h5.1
			l0,16.3c0,7.4-5.4,13-12.2,13C270,165.1,264.6,159.1,264.6,152L264.6,152z M206,147.6v13.5c-9,7.8-24.3,2.5-24.3-11.7
			c0-14.2,14-16.6,24-12.1v5.6c-10.8-5.6-19-0.6-19,6.4c0,7.8,6,13,14.3,9.6v-6.3h-4.6v-4.9L206,147.6z M246.6,135.2
			c-7.8,0-14.1,6.6-14.1,14.8c0,8.2,6.3,14.8,14.1,14.8c7.8,0,14.1-6.6,14.1-14.8C260.7,141.8,254.4,135.2,246.6,135.2z
			 M169.7,135.9c4.7,0,8.5,3.8,8.5,8.5c0,3.3-1.9,6-4.6,7.5l8.2,12.3h-5.5l-8-11.3h-3v11.3h-5.1v-28.3H169.7z M220.2,135.9
			c4.7,0,8.5,3.8,8.5,8.5c0,3.3-1.9,6-4.6,7.5l8.2,12.3h-5.5l-8-11.3h-3v11.3h-5.1v-28.3H220.2z M138.4,135.8h16.8v5.6h-11.7v5h9.1
			v5.4h-9.1v6.6h12.1v5.7h-17.1L138.4,135.8z M314.8,155.2v-19.4h5.1v28.3h-5.1l-14.6-19v19h-5.1v-28.3h5.1L314.8,155.2z
			 M100.3,155.2v-19.4h5.1v28.3h-5.1l-14.6-19v19h-5.1v-28.3h5.1L100.3,155.2z M246.6,140.8c4.9,0,8.9,4.1,8.9,9.2
			c0,5.1-4,9.2-8.9,9.2c-4.9,0-8.8-4.1-8.8-9.2C237.7,144.9,241.7,140.8,246.6,140.8z M169.7,147.9c2,0,3.5-1.6,3.5-3.5
			c0-2-1.6-3.5-3.5-3.5l-4.4,0v7H169.7z M220.2,147.9c2,0,3.5-1.6,3.5-3.5c0-2-1.6-3.5-3.5-3.5l-4.4,0v7H220.2z"/>
		<path class="st2" d="M326.2,135.8v28.3l10.2,0c7.4,0,13.4-6.3,13.4-14.2c0-7.8-5.8-14-13.3-14H326.2z M336.4,141
			c4.7,0,8.4,4,8.4,8.9c0,4.9-3.9,8.9-8.6,8.9l-4.9,0V141L336.4,141z"/>
	</g>
</g>
</svg>
